<svg width="254" height="239" xmlns="http://www.w3.org/2000/svg">
  <path d="M43.3 0c.6 3.4.6 7.2 0 11.8-2.4-.7-3.8-2.5-5.8-5.9a37 37 0 000 14.8c-2.6 3-5.7 9-6 11.6-5.3 12.5-12 20.3-11.3 26.8 0 5.9 6 8.9 8.7 9 2.9-.1 5.8-3.1 8.6-9a59 59 0 0017.3-11.8c5.9.1 8.6 18 5.8 23.8-9 14.7-14.4 26.5-14.4 44.4H34.6c-11.4-3-21.7-4.6-26 6C6 130.1-.1 141.8 0 148c.2 3 2 8 2.9 11.9.1 7.9 2.8 14.9 5.8 14.8 2.7.2 5.6-6.1 5.7-9 0-6-3.8-7.8-5.7-11.8 1-14.3 2-25.2 14.4-26.7a88 88 0 0041.8 6.2c7.5-2.7 11.6-7.5 16.8-12.4 1.4-1.3 2.7-1 3.6-.2 1.3 1 1.7 3.3.4 4.4-5 4.7-9.4 9.3-15.8 12.3 10.6 12 25 20.6 43 22-.6-7 1.2-13 2.7-19.6a3 3 0 013-2.3c1.7 0 3.2 2 2.7 3.7-1.6 7-3.8 11.8-2.6 19.5 2.9 12 11.8 23.3 19.8 34.6v6a60.6 60.6 0 00-20.2 14.8c-9 .2-19 2.3-19.3 8.5.6 2.2 1.6 2.3 3.6 3.3a8.8 8.8 0 00-2.4 8.4c3 3 11.5 3.4 15.3.5 1.6-1.2 3.1-5.7 4.7-8.5l4-.3c8.6-9.8 17.2-17.6 23-20.8 5.8.6 10.3-2.1 11.6-6 1-3.8-2-7.9-3-11.8-.8-6.6-.9-14.4 0-17.8 14.5-14.8 24.8-24.4 24.8-48l5.3 3.6c0 44.5 24.8 53.3 68.1 41.5-20.2-6-31.7-9-40.4-20.8 5.8 0 11.5 3 20.2 0-28.9-8.9-26-41.5-60.6-38.5-11.6-14.8-40.4-17.8-60.6-20.8 0-20.7-3-29.7-14.5-41.5 5.8 0 9.7 2 14.5 3-8.7-11.9-20.2-17.8-28.9-23.7h11.7C81 14.9 72.2 9 52 12 49 6 46.2 3 43.3 0zm-3.5 27a11 11 0 01-.6 6.2c-.8 1-1.6 1-2.1 0-.5-1.3 1.6-5.3 2.7-6.2zM22.2 130C20 143.6 17 149.5 17 155c.2 3 5.4 8.5 7.4 11.3.8 5.6 3 11.5 6.4 11.7 3 .2 3.2-8.6 3.2-12-.2-2.7-3.7-5.5-5.8-8.3-.4-9 .2-19 4.3-24.6-3.6-1.2-7.2-2.3-10.3-3.1z" fill="#FFF" fill-rule="nonzero"/>
</svg>
